<svg width="22" height="21" viewBox="0 0 22 21" fill="none" xmlns="http://www.w3.org/2000/svg">
<path d="M21.28 10.536C20.5707 12.2347 19.6747 13.728 18.592 15.016L20.076 16.528L15.904 20.364L14.308 18.712C12.3107 19.8693 10.1547 20.448 7.84 20.448C6.42133 20.448 5.13333 20.2427 3.976 19.832C2.81867 19.4027 1.904 18.796 1.232 18.012C0.578667 17.2093 0.252 16.2667 0.252 15.184C0.252 12.664 1.88533 10.62 5.152 9.052C4.536 8.156 4.228 7.18533 4.228 6.14C4.228 4.88933 4.564 3.80667 5.236 2.892C5.92667 1.97733 6.84133 1.27733 7.98 0.791999C9.13733 0.306666 10.388 0.0639997 11.732 0.0639997C13.5427 0.0639997 15.0173 0.456 16.156 1.24C17.2947 2.00533 17.864 3.09733 17.864 4.516C17.864 5.67333 17.4907 6.68133 16.744 7.54C15.9973 8.39867 14.9333 9.164 13.552 9.836L15.232 11.572C15.68 10.844 16.1 9.99467 16.492 9.024L21.28 10.536ZM11.48 4.152C11.0507 4.152 10.696 4.28267 10.416 4.544C10.136 4.78667 9.996 5.11333 9.996 5.524C9.996 5.72933 10.0427 5.93467 10.136 6.14C10.248 6.34533 10.4347 6.59733 10.696 6.896C11.4053 6.56 11.8907 6.24267 12.152 5.944C12.4133 5.64533 12.544 5.33733 12.544 5.02C12.544 4.75867 12.4413 4.55333 12.236 4.404C12.0493 4.236 11.7973 4.152 11.48 4.152ZM8.96 15.744C9.66933 15.744 10.36 15.5947 11.032 15.296L7.98 12.16C7.04667 12.72 6.58 13.3733 6.58 14.12C6.58 14.5867 6.776 14.9787 7.168 15.296C7.57867 15.5947 8.176 15.744 8.96 15.744Z" fill="#101010"/>
</svg>
