<svg width="214" height="205" viewBox="0 0 214 205" fill="none" xmlns="http://www.w3.org/2000/svg">
<path d="M107.847 23.6841C107.847 25.6293 106.264 27.2065 104.308 27.2065C102.352 27.2065 100.77 25.6293 100.77 23.6841V3.52233C100.77 1.57712 102.352 0 104.308 0C106.264 0 107.847 1.57712 107.847 3.52233V23.6841Z" fill="url(#paint0_linear)"/>
<path fill-rule="evenodd" clip-rule="evenodd" d="M199.846 60.1839V69.2134L211.702 87.6757C213.206 90.0198 214 92.7258 214 95.5049V98.5236C214 106.752 210.787 114.491 204.95 120.313L185.692 139.532V159.21H189.231C191.187 159.21 192.769 160.787 192.769 162.732V190.911C192.769 192.856 191.187 194.433 189.231 194.433H132.616V201.478C132.616 203.423 131.033 205 129.077 205H68.9238C66.9697 205 65.3854 203.423 65.3854 201.478V194.433H8.77027C6.81616 194.433 5.23183 192.856 5.23183 190.911V162.732C5.23183 160.787 6.81616 159.21 8.77027 159.21H12.3087V134.745L5.34417 118.876C2.92387 113.359 1.69515 107.506 1.69515 101.485V77.4239C1.69515 71.6095 5.41848 66.4686 10.9597 64.6317L14.7379 63.3778C17.9808 58.0784 23.7078 54.8467 30.0284 54.8467H34.1851C35.6589 50.9158 39.7759 46.4953 48.9971 46.4953C53.1229 46.4953 56.8002 48.4405 59.1533 51.4556C62.0716 48.7223 66.2779 47.4859 70.3852 48.5091C75.1939 49.7076 78.689 53.665 79.3905 58.4307C82.4336 56.1429 86.187 54.8458 90.1819 54.8458H94.3387C95.8107 50.9149 99.9294 46.4944 109.152 46.4944C113.276 46.4944 116.952 48.4396 119.305 51.4547C122.218 48.7267 126.426 47.4868 130.535 48.51C135.36 49.712 138.858 53.6852 139.547 58.4659C142.594 56.1711 146.336 54.8467 150.335 54.8467H154.492C155.964 50.9158 160.083 46.4953 169.306 46.4953C173.429 46.4953 177.106 48.4405 179.459 51.4556C182.375 48.7275 186.58 47.4877 190.689 48.5109C196.083 49.8547 199.846 54.6547 199.846 60.1839ZM192.769 60.1839C192.769 57.8917 191.207 55.9016 188.972 55.346C186.47 54.7199 183.829 56.1508 183.01 58.6059L182.082 61.3656L180.526 73.751L188.56 70.4911C189.936 69.9328 191.359 69.629 192.769 69.5586V60.1839ZM175.076 59.2839C175.076 56.1165 172.489 53.5399 169.306 53.5399C162.046 53.5399 161.047 57.0904 160.91 58.1154L163.441 70.1847L166.683 83.0958C166.825 83.6611 167.18 84.1111 167.605 84.4765C168.104 81.3117 170.045 78.4824 172.997 76.9158L175.076 60.3671V59.2839ZM150.335 61.8922C146.203 61.8922 142.485 64.1791 140.632 67.8635C140.399 68.3249 140.07 68.7009 139.693 69.0073V69.1764C141.078 68.9721 142.51 69.5938 143.262 70.8698L154.199 89.4465C154.921 90.6741 156.421 91.2385 157.786 90.7876C159.251 90.3024 160.117 88.801 159.803 87.2979L156.545 71.7635L154.067 61.8922H150.335ZM185.692 169.777V166.254H132.616V169.777H185.692ZM72.4623 159.21V134.746L71.7678 133.162L65.3854 139.532V159.21H72.4623ZM125.539 166.254H72.4623V169.777H125.539V166.254ZM132.616 134.746L131.921 133.162L125.539 139.532V159.21H132.616V134.746ZM118.462 138.076C118.462 137.144 118.835 136.249 119.495 135.589L139.786 115.341C144.288 110.846 146.77 104.875 146.77 98.5253V95.5067C146.77 94.074 146.358 92.6791 145.584 91.4719L137.384 78.7017C136.133 76.8322 133.363 76.0907 131.085 77.0136L131.084 77.0151L131.082 77.0162L116.458 82.9496C114.817 83.6153 113.97 85.4469 114.53 87.12C115.065 88.7209 116.724 89.6843 118.389 89.3488L132.288 86.5811C134.222 86.2016 136.068 87.4379 136.451 89.3435C136.835 91.2508 135.591 93.1062 133.676 93.4884L119.778 96.2561C119.091 96.3934 118.407 96.4586 117.73 96.4586C114.419 96.4586 111.312 94.8823 109.356 92.2793C109.351 92.2793 109.346 92.2797 109.341 92.2802C109.335 92.2808 109.329 92.2816 109.324 92.2824C109.318 92.2832 109.313 92.2839 109.308 92.2845C109.302 92.2851 109.297 92.2855 109.291 92.2855C108.146 92.2855 107.038 92.09 106.004 91.729C104.919 94.3584 102.758 96.5141 99.8719 97.4713C98.8281 97.8165 97.7604 97.982 96.7033 97.982C94.9411 97.9829 93.2126 97.5232 91.6919 96.6699C91.0524 98.5834 89.8325 100.312 88.073 101.523C86.4037 102.674 84.4965 103.228 82.6096 103.228C79.7081 103.228 76.8526 101.919 74.9657 99.449L68.9256 91.8496V101.485C68.9256 106.532 69.9535 111.433 71.9837 116.056L79.2437 132.599C79.4392 133.045 79.5391 133.525 79.5391 134.01V159.21H118.462V138.076ZM61.8478 80.6979L56.3004 82.9478C54.6612 83.6135 53.8164 85.4452 54.3755 87.1174C54.9107 88.7183 56.5658 89.6781 58.2351 89.3479L61.8478 88.6285V80.6979ZM75.3576 70.6496L73.3504 71.3153C70.7028 72.1924 68.9256 74.6466 68.9256 77.4239V80.4954L80.5573 95.1298C81.4189 96.2605 82.9343 96.4991 84.0471 95.7304C85.0352 95.0497 85.4068 93.7578 84.93 92.6606L77.0047 74.4361L77.003 74.4335C77.0021 74.4317 77.0021 74.4308 77.0012 74.4291L75.3576 70.6496ZM132.616 60.1839C132.616 57.8917 131.054 55.9016 128.818 55.346C126.319 54.7199 123.676 56.1508 122.859 58.605L121.931 61.3648L120.375 73.7493L128.408 70.4893C128.41 70.4885 128.412 70.4883 128.415 70.488C128.417 70.4878 128.42 70.4876 128.422 70.4867C129.778 69.9381 131.199 69.6484 132.616 69.5938V60.1839ZM114.923 59.2839C114.923 56.1165 112.335 53.5399 109.152 53.5399C101.892 53.5399 100.894 57.0904 100.757 58.1154L103.287 70.1847L106.53 83.0958C106.674 83.6681 107.024 84.1252 107.449 84.4932C107.944 81.3214 109.887 78.4842 112.845 76.915L114.923 60.3671V59.2839ZM93.9132 61.8914H90.1819C86.5718 61.8914 83.2828 63.6349 81.2756 66.5259L83.32 71.2282L94.0485 89.4456C94.7713 90.6732 96.2671 91.2376 97.6321 90.7868C99.097 90.3016 99.9639 88.8002 99.6499 87.297L96.3919 71.7627L93.9132 61.8914ZM72.4623 60.1839C72.4623 57.8917 70.9018 55.9016 68.6682 55.346C66.1435 54.7217 63.5242 56.1508 62.6997 58.6068L61.7753 61.3683L60.221 73.7501L62.7236 72.7348C64.123 68.9844 67.136 65.95 71.1132 64.6317L72.4623 64.1835V60.1839ZM54.7691 59.2839C54.7691 56.1165 52.1799 53.5399 48.9971 53.5399C41.7459 53.5399 40.7419 57.0843 40.6039 58.111L43.1259 70.1415L46.3795 83.0949C46.521 83.6611 46.8731 84.1128 47.296 84.4791C47.794 81.3126 49.7357 78.4806 52.6921 76.9132L54.7691 60.3671V59.2839ZM33.7579 61.8914H30.0284C26.4183 61.8914 23.1293 63.6349 21.1221 66.5267L23.1664 71.229L33.895 89.4465C34.6159 90.6741 36.1207 91.2385 37.4785 90.7876C38.9435 90.3024 39.8086 88.8028 39.4928 87.2997L36.2259 71.7178L33.7579 61.8914ZM15.204 70.6496L13.1969 71.3153C10.5492 72.1924 8.77204 74.6466 8.77204 77.4239V80.4954L20.4038 95.1298C21.2654 96.2605 22.779 96.4991 23.8936 95.7304C24.8817 95.0497 25.2532 93.7578 24.7764 92.6606L16.8512 74.4361L16.8494 74.4335C16.8485 74.4317 16.8485 74.4308 16.8476 74.4291L15.204 70.6496ZM11.8301 116.056L19.0901 132.599C19.2848 133.045 19.3856 133.525 19.3865 134.009V159.209H58.3094V138.075C58.3094 137.143 58.6809 136.249 59.3426 135.588L68.7239 126.226L65.4986 118.876C63.0783 113.359 61.8496 107.506 61.8496 101.485V95.8122L59.6257 96.2552C58.9401 96.3925 58.2545 96.4577 57.5787 96.4577C54.2685 96.4577 51.1608 94.8823 49.2041 92.2793C49.193 92.2793 49.1822 92.2809 49.1713 92.2824C49.1605 92.284 49.1497 92.2855 49.1386 92.2855C47.9913 92.2855 46.8837 92.09 45.8496 91.729C44.7642 94.3575 42.604 96.5132 39.7184 97.4713C38.6763 97.8165 37.6068 97.982 36.5497 97.982C34.7884 97.982 33.059 97.5215 31.5384 96.669C30.8988 98.5834 29.6789 100.312 27.9194 101.523C26.2502 102.674 24.343 103.228 22.4561 103.228C19.5546 103.228 16.699 101.919 14.8122 99.449L8.77204 91.8496V101.485C8.77204 106.532 9.79996 111.433 11.8301 116.056ZM65.3854 169.777V166.254H12.3087V169.777H65.3854ZM12.3087 176.821V187.388H65.3854V176.821H12.3087ZM72.4623 197.955H125.539V176.821H72.4623V197.955ZM132.616 176.821V187.388H185.692V176.821H132.616ZM199.939 115.339C204.442 110.845 206.923 104.873 206.923 98.5236H206.92V95.5058C206.92 94.0731 206.509 92.6782 205.735 91.471L197.48 78.6145C196.252 76.7899 193.501 76.0943 191.233 77.0136L176.609 82.9487C174.967 83.6144 174.121 85.446 174.681 87.1191C175.216 88.72 176.875 89.6693 178.54 89.3479L192.439 86.5802C194.373 86.2007 196.218 87.437 196.602 89.3426C196.985 91.25 195.742 93.1053 193.827 93.4875L179.929 96.2552C179.242 96.3925 178.558 96.4577 177.88 96.4577C174.57 96.4577 171.463 94.8815 169.507 92.2793C169.486 92.2793 169.464 92.2855 169.442 92.2855C168.297 92.2855 167.189 92.09 166.155 91.729C165.07 94.3584 162.908 96.5141 160.023 97.4713C158.979 97.8173 157.911 97.9838 156.854 97.9838C155.823 97.9838 154.819 97.7821 153.845 97.4801V98.5236C153.845 106.752 150.632 114.491 144.795 120.313L137.29 127.804L139.395 132.601C139.592 133.045 139.692 133.525 139.692 134.01V159.21H178.615V138.076C178.615 137.144 178.988 136.249 179.648 135.589L199.939 115.339Z" fill="url(#paint1_linear)"/>
<path d="M121.624 29.0868C122.194 29.4275 122.822 29.5887 123.442 29.5887C124.644 29.5887 125.816 28.9802 126.479 27.8795L133.214 16.7084C134.22 15.0397 133.676 12.8761 132.001 11.8758C130.322 10.871 128.149 11.4152 127.146 13.0831L120.412 24.2541C119.405 25.9219 119.947 28.0855 121.624 29.0868Z" fill="url(#paint2_linear)"/>
<path d="M27.3963 34.0514C27.9021 35.9303 29.8408 37.046 31.73 36.5421C33.6193 36.0382 34.7378 34.107 34.2321 32.2281L31.1364 20.7275C30.6306 18.8486 28.6919 17.7329 26.8027 18.2368C24.9135 18.7407 23.7949 20.6718 24.3006 22.5508L27.3963 34.0514Z" fill="url(#paint3_linear)"/>
<path d="M179.218 33.1994C181.107 33.7033 183.046 32.5876 183.552 30.7087L186.648 19.2081C187.153 17.3291 186.035 15.398 184.146 14.8941C182.256 14.3902 180.318 15.5059 179.812 17.3848L176.716 28.8854C176.21 30.7644 177.329 32.6955 179.218 33.1994Z" fill="url(#paint4_linear)"/>
<path d="M13.8676 43.7727C14.4658 43.6132 15.0305 43.2957 15.4931 42.8195C16.852 41.4205 16.8132 39.1909 15.4072 37.8393L5.9976 28.784C4.59585 27.4312 2.35492 27.4655 0.994372 28.8686C-0.3639 30.2665 -0.325993 32.4963 1.07941 33.849L10.489 42.9044C11.416 43.7967 12.7064 44.0824 13.8676 43.7727Z" fill="url(#paint5_linear)"/>
<path d="M198.323 40.5773C198.786 41.0534 199.35 41.3709 199.949 41.5305C201.11 41.8402 202.4 41.5544 203.327 40.6621L212.737 31.6068C214.142 30.2541 214.18 28.0243 212.822 26.6264C211.461 25.2233 209.22 25.189 207.819 26.5417L198.409 35.5971C197.003 36.9487 196.964 39.1783 198.323 40.5773Z" fill="url(#paint6_linear)"/>
<path d="M85.1732 29.5886C83.9701 29.5886 82.7989 28.9801 82.1354 27.8777L75.4053 16.7066C74.3995 15.0405 74.9435 12.8769 76.6199 11.8757C78.29 10.871 80.467 11.4152 81.4728 13.0848L88.2038 24.2558C89.2096 25.9219 88.6656 28.0855 86.9893 29.0867C86.4205 29.4266 85.7915 29.5886 85.1732 29.5886Z" fill="url(#paint7_linear)"/>
<defs>
<linearGradient id="paint0_linear" x1="107" y1="-65.1698" x2="107" y2="269.537" gradientUnits="userSpaceOnUse">
<stop stop-color="#727272"/>
<stop offset="1" stop-color="#0A0A0A"/>
</linearGradient>
<linearGradient id="paint1_linear" x1="107" y1="-65.1698" x2="107" y2="269.537" gradientUnits="userSpaceOnUse">
<stop stop-color="#727272"/>
<stop offset="1" stop-color="#0A0A0A"/>
</linearGradient>
<linearGradient id="paint2_linear" x1="107" y1="-65.1698" x2="107" y2="269.537" gradientUnits="userSpaceOnUse">
<stop stop-color="#727272"/>
<stop offset="1" stop-color="#0A0A0A"/>
</linearGradient>
<linearGradient id="paint3_linear" x1="107" y1="-65.1698" x2="107" y2="269.537" gradientUnits="userSpaceOnUse">
<stop stop-color="#727272"/>
<stop offset="1" stop-color="#0A0A0A"/>
</linearGradient>
<linearGradient id="paint4_linear" x1="107" y1="-65.1698" x2="107" y2="269.537" gradientUnits="userSpaceOnUse">
<stop stop-color="#727272"/>
<stop offset="1" stop-color="#0A0A0A"/>
</linearGradient>
<linearGradient id="paint5_linear" x1="107" y1="-65.1698" x2="107" y2="269.537" gradientUnits="userSpaceOnUse">
<stop stop-color="#727272"/>
<stop offset="1" stop-color="#0A0A0A"/>
</linearGradient>
<linearGradient id="paint6_linear" x1="107" y1="-65.1698" x2="107" y2="269.537" gradientUnits="userSpaceOnUse">
<stop stop-color="#727272"/>
<stop offset="1" stop-color="#0A0A0A"/>
</linearGradient>
<linearGradient id="paint7_linear" x1="107" y1="-65.1698" x2="107" y2="269.537" gradientUnits="userSpaceOnUse">
<stop stop-color="#727272"/>
<stop offset="1" stop-color="#0A0A0A"/>
</linearGradient>
</defs>
</svg>
