<svg width="114" height="28" viewBox="0 0 114 28" fill="none" xmlns="http://www.w3.org/2000/svg">
<path d="M20.7398 1.80375C20.6938 2.42654 20.4792 3.02508 20.119 3.53517C18.9809 5.1438 16.7746 6.00852 14.174 6.73971C14.174 4.28105 15.9788 3.18903 17.7208 2.13503C18.7628 1.50455 19.7823 0.887663 20.3797 0C20.6612 0.557416 20.7857 1.18096 20.7398 1.80375Z" fill="url(#paint0_linear)"/>
<path d="M22.3203 19.8244C22.6164 19.5754 22.8582 19.2683 23.0309 18.9221C24.1627 20.5626 23.9401 23.3983 22.465 25.4457C19.6038 29.3496 13.7352 28.345 11.974 25.3376C15.0831 25.1087 16.2658 23.0295 15.7189 20.8868C14.7716 22.5082 10.9566 23.0931 10.9566 20.7279C10.9566 19.5938 12.2996 18.8117 13.045 18.3775C13.1731 18.3029 13.2835 18.2386 13.3664 18.1846C16.2022 16.3471 16.3929 14.0327 16.3929 14.0327C15.5739 14.5525 13.6313 14.9476 12.2021 15.2382C11.7785 15.3243 11.4 15.4013 11.1092 15.4696C4.05162 17.1164 4.18514 25.0769 10.1364 27.6774C2.32218 29.5849 -3.00601 21.8406 1.87075 14.961C4.02138 11.9291 8.31304 10.6069 12.4303 9.33835C16.5417 8.07167 20.4791 6.85857 21.9373 4.05026C21.9373 4.05026 26.3753 9.7663 20.2651 14.624C16.8952 17.2881 17.8044 19.399 19.0761 20.1048C19.4105 20.2993 19.7812 20.4232 20.1654 20.4689C20.5495 20.5145 20.939 20.4808 21.3096 20.37C21.6803 20.2591 22.0243 20.0735 22.3203 19.8244Z" fill="url(#paint1_linear)"/>
<path d="M42.7475 11.8761C43.0443 11.4755 43.1921 10.9838 43.1654 10.486C43.1387 9.98806 42.9392 9.51506 42.6012 9.14844C41.5394 10.649 38.2268 10.6681 38.7863 13.6501C40.0007 13.1923 42.0099 12.8998 42.7475 11.8761Z" fill="url(#paint2_linear)"/>
<path d="M54.231 24.3586C51.1537 24.3586 49.3161 22.5529 49.9011 19.0241C50.1418 17.6585 50.8701 16.4268 51.9507 15.5578C53.0313 14.6889 54.3907 14.2419 55.7761 14.2999C58.8344 14.2999 60.2268 16.1629 59.7436 18.9605C59.5719 19.9905 58.6373 20.2322 57.8679 20.2322H52.9212C53.0802 21.5419 54.0085 22.1968 55.8397 22.1968C56.8522 22.2071 57.8562 22.0102 58.7899 21.6182C58.7899 21.6182 58.9615 24.3586 54.231 24.3586ZM53.042 18.5027H56.2657C56.4008 18.5042 56.5319 18.4567 56.6347 18.3691C56.7376 18.2814 56.8052 18.1595 56.8252 18.0259C57.0032 16.9513 56.4755 16.2392 55.42 16.2392C54.0784 16.2456 53.36 17.0976 53.042 18.5091V18.5027Z" fill="white"/>
<path d="M63.7429 24.3585C60.3285 24.3585 61.0724 21.6245 61.0724 21.6245C61.7327 22.1301 62.5583 22.3705 63.3868 22.2984C64.3215 22.2984 65.0145 22.0759 65.1035 21.5609C65.3197 20.2892 60.5574 21.2811 61.1551 17.6506C61.4984 15.5651 63.6475 14.2998 66.0763 14.2998C68.3399 14.2998 69.6115 15.2917 69.389 16.6206C69.2427 17.4916 68.5433 17.8286 67.6278 17.8286H66.8266L66.8838 17.4916C67.0046 16.7541 66.6422 16.3026 65.7712 16.3026C65.4597 16.2723 65.1476 16.3535 64.8903 16.5316C64.633 16.7097 64.4473 16.9733 64.366 17.2755C64.0417 19.2401 68.8612 17.8477 68.289 21.3002C67.9393 23.4048 65.8029 24.3585 63.7429 24.3585Z" fill="white"/>
<path d="M73.8208 16.7034L73.274 19.997C73.0387 21.4085 73.4329 22.1588 74.8063 22.1588C75.4402 22.1602 76.0684 22.0393 76.6565 21.8027C76.6565 21.8027 77.4958 24.346 73.115 24.346C71.055 24.346 69.7833 23.3923 70.2665 20.4739L71.3411 13.9885C71.589 12.4816 72.1549 11.2227 74.73 11.2227L74.1896 14.4781L76.3514 14.37C77.3687 14.37 77.5848 14.9041 76.9872 16.6844L73.8208 16.7034Z" fill="white"/>
<path d="M81.946 24.359C78.8305 24.359 77.1201 22.2544 77.6351 19.1389C78.1502 16.0234 80.331 14.2939 83.6119 14.2939C86.8927 14.2939 88.4695 16.0997 87.9609 19.1389C87.7684 20.5933 87.0505 21.9271 85.9425 22.8887C84.8345 23.8502 83.413 24.3732 81.946 24.359ZM83.2177 16.5829C81.6408 16.5829 80.9287 17.6129 80.6744 19.1262C80.42 20.6394 80.8842 22.0001 82.3148 22.0001C83.7454 22.0001 84.6419 20.6331 84.8899 19.1262C85.1378 17.6193 84.7945 16.5829 83.2367 16.5829H83.2177Z" fill="white"/>
<path d="M110.876 14.2998C110.141 14.3032 109.416 14.4724 108.756 14.795C108.095 15.1176 107.516 15.5851 107.062 16.1628C106.858 15.0119 106.044 14.2998 104.645 14.2998C103.947 14.3066 103.259 14.4728 102.634 14.7857C102.009 15.0986 101.464 15.55 101.04 16.1055L101.32 14.4206C98.745 14.4206 98.3889 14.4206 98.1409 15.9275L96.7739 24.1932C99.3172 24.1932 99.6987 24.1932 99.953 22.7372L100.544 19.1575C100.799 17.6315 101.816 16.8367 102.821 16.8367C103.825 16.8367 104.092 17.4726 103.914 18.6425L102.96 24.1614C105.504 24.1614 105.879 24.1614 106.14 22.7308L106.775 19.0621C106.837 18.4816 107.096 17.9399 107.509 17.5277C107.922 17.1156 108.465 16.8581 109.045 16.7986C110.024 16.7986 110.317 17.4344 110.139 18.6043L109.179 24.1614C111.722 24.1614 112.11 24.1614 112.358 22.6736L113.223 17.4535C113.541 15.5079 112.828 14.2998 110.876 14.2998Z" fill="white"/>
<path d="M96.1954 14.2998C95.1972 14.2998 94.0718 14.9356 93.0163 16.3662L93.3406 14.4206C90.7655 14.4206 90.4094 14.4206 90.1615 15.9275L88.7944 24.1932C91.3377 24.1932 91.7192 24.1932 91.9735 22.7372L92.3741 20.3083C92.8255 17.5679 94.3579 16.735 96.6723 17.0911C97.2 14.8975 97.0665 14.2998 96.1954 14.2998Z" fill="white"/>
<path d="M49.5948 14.2998C48.5966 14.2998 47.4712 14.9356 46.4157 16.3662L46.74 14.4206C44.1649 14.4206 43.8089 14.4206 43.5609 15.9275L42.1812 24.1614C44.7244 24.1614 45.1059 24.1614 45.3603 22.7054L45.7799 20.2702C46.2313 17.5298 47.7637 16.6969 50.0781 17.0529C50.574 14.8975 50.4468 14.2998 49.5948 14.2998Z" fill="white"/>
<path d="M41.4568 14.4199C38.8817 14.4199 38.5257 14.4199 38.2777 15.9268L36.8789 24.1607C39.4222 24.1607 39.8037 24.1607 40.058 22.7047L41.4568 14.4199Z" fill="white"/>
<path d="M35.9374 14.3881L33.7819 14.4962L33.8646 13.9939C33.8789 13.7117 33.95 13.4352 34.0735 13.181C34.197 12.9268 34.3704 12.7 34.5834 12.5143C34.7964 12.3286 35.0447 12.1876 35.3134 12.0999C35.582 12.0122 35.8656 11.9795 36.1472 12.0038C36.4285 12.0126 36.7079 12.0531 36.9801 12.1246C36.9801 12.1246 38.1882 9.82294 35.4287 9.82294C34.3334 9.79275 33.2669 10.1765 32.442 10.8978C31.6171 11.619 31.0943 12.6246 30.978 13.7142L29.2485 24.1607C31.7918 24.1607 32.1797 24.1607 32.4276 22.6856L33.4195 16.6962H36.5986C37.1772 14.9222 36.9611 14.3881 35.9374 14.3881Z" fill="white"/>
<defs>
<linearGradient id="paint0_linear" x1="16.5313" y1="0" x2="16.5313" y2="27.9762" gradientUnits="userSpaceOnUse">
<stop stop-color="#FF6400"/>
<stop offset="0.0001" stop-color="#FF6400"/>
<stop offset="0.5" stop-color="#FF3232"/>
<stop offset="1" stop-color="#FF0064"/>
</linearGradient>
<linearGradient id="paint1_linear" x1="16.5313" y1="0" x2="16.5313" y2="27.9762" gradientUnits="userSpaceOnUse">
<stop stop-color="#FF6400"/>
<stop offset="0.0001" stop-color="#FF6400"/>
<stop offset="0.5" stop-color="#FF3232"/>
<stop offset="1" stop-color="#FF0064"/>
</linearGradient>
<linearGradient id="paint2_linear" x1="52.1372" y1="8.90069" x2="52.1372" y2="13.3514" gradientUnits="userSpaceOnUse">
<stop stop-color="#FF6400"/>
<stop offset="0.0001" stop-color="#FF6400"/>
<stop offset="0.5" stop-color="#FF3232"/>
<stop offset="1" stop-color="#FF0064"/>
</linearGradient>
</defs>
</svg>
