<svg width="179" height="44" viewBox="0 0 179 44" fill="none" xmlns="http://www.w3.org/2000/svg">
<path d="M32.5911 2.83446C32.5189 3.81314 32.1817 4.7537 31.6155 5.55527C29.8271 8.08311 26.36 9.44196 22.2735 10.591C22.2735 6.72736 25.1096 5.01134 27.847 3.35504C29.4844 2.36429 31.0865 1.3949 32.0252 0C32.4676 0.87594 32.6632 1.85579 32.5911 2.83446Z" fill="url(#paint0_linear)"/>
<path d="M35.0748 31.1527C35.54 30.7614 35.9201 30.2788 36.1914 29.7348C37.9699 32.3126 37.6202 36.7688 35.3022 39.986C30.806 46.1208 21.5839 44.5422 18.8162 39.8162C23.7021 39.4565 25.5605 36.1893 24.7012 32.8222C23.2125 35.37 17.2176 36.2892 17.2176 32.5724C17.2176 30.7902 19.3279 29.5612 20.4993 28.8789C20.7005 28.7618 20.874 28.6607 21.0044 28.5758C25.4606 25.6882 25.7603 22.0513 25.7603 22.0513C24.4732 22.8683 21.4206 23.489 19.1748 23.9457C18.5091 24.0811 17.9143 24.202 17.4574 24.3094C6.36683 26.8972 6.57665 39.4065 15.9287 43.4931C3.64914 46.4905 -4.72372 34.3209 2.93975 23.5101C6.3193 18.7457 13.0633 16.6679 19.5333 14.6746C25.994 12.6841 32.1815 10.7777 34.4729 6.36469C34.4729 6.36469 41.4469 15.347 31.8451 22.9805C26.5496 27.167 27.9784 30.4841 29.9767 31.5932C30.5022 31.8989 31.0848 32.0937 31.6884 32.1653C32.2921 32.237 32.9041 32.1841 33.4866 32.01C34.069 31.8358 34.6096 31.544 35.0748 31.1527Z" fill="url(#paint1_linear)"/>
<path d="M67.1755 18.6633C67.6419 18.0337 67.8741 17.2612 67.8322 16.4788C67.7903 15.6964 67.4768 14.9531 66.9457 14.377C65.2771 16.7349 60.0716 16.7649 60.9508 21.4509C62.8592 20.7315 66.0165 20.2719 67.1755 18.6633Z" fill="url(#paint2_linear)"/>
<path d="M85.2202 38.2773C80.3843 38.2773 77.4968 35.4397 78.416 29.8944C78.7942 27.7485 79.9387 25.8129 81.6368 24.4475C83.3349 23.082 85.471 22.3796 87.6481 22.4708C92.454 22.4708 94.6422 25.3983 93.8828 29.7945C93.613 31.4132 92.1443 31.7928 90.9353 31.7928H83.1619C83.4117 33.8511 84.8705 34.8802 87.748 34.8802C89.3392 34.8964 90.9169 34.587 92.3841 33.971C92.3841 33.971 92.6539 38.2773 85.2202 38.2773ZM83.3518 29.0751H88.4175C88.6298 29.0775 88.8358 29.0029 88.9974 28.8651C89.159 28.7274 89.2654 28.5358 89.2967 28.3258C89.5765 26.6372 88.7472 25.5182 87.0886 25.5182C84.9804 25.5282 83.8514 26.867 83.3518 29.0851V29.0751Z" fill="white"/>
<path d="M100.166 38.2772C94.801 38.2772 95.97 33.9809 95.97 33.9809C97.0076 34.7755 98.3049 35.1533 99.6069 35.04C101.076 35.04 102.165 34.6903 102.305 33.881C102.644 31.8827 95.1607 33.4414 96.0999 27.7362C96.6394 24.459 100.017 22.4707 103.833 22.4707C107.39 22.4707 109.389 24.0294 109.039 26.1176C108.809 27.4864 107.71 28.016 106.271 28.016H105.012L105.102 27.4864C105.292 26.3274 104.723 25.618 103.354 25.618C102.864 25.5704 102.374 25.6979 101.97 25.9778C101.565 26.2577 101.273 26.6719 101.146 27.1467C100.636 30.2341 108.21 28.046 107.31 33.4713C106.761 36.7785 103.404 38.2772 100.166 38.2772Z" fill="white"/>
<path d="M116.004 26.2484L115.145 31.424C114.775 33.6421 115.395 34.8211 117.553 34.8211C118.549 34.8233 119.536 34.6334 120.46 34.2616C120.46 34.2616 121.779 38.2582 114.895 38.2582C111.658 38.2582 109.659 36.7594 110.419 32.1734L112.107 21.982C112.497 19.6141 113.386 17.6357 117.433 17.6357L116.584 22.7514L119.981 22.5815C121.579 22.5815 121.919 23.4208 120.98 26.2184L116.004 26.2484Z" fill="white"/>
<path d="M128.773 38.2775C123.877 38.2775 121.19 34.9703 121.999 30.0745C122.808 25.1786 126.235 22.4609 131.391 22.4609C136.547 22.4609 139.024 25.2985 138.225 30.0745C137.923 32.3599 136.795 34.4558 135.053 35.9669C133.312 37.478 131.079 38.2998 128.773 38.2775ZM130.772 26.0579C128.294 26.0579 127.175 27.6765 126.775 30.0545C126.375 32.4324 127.105 34.5706 129.353 34.5706C131.601 34.5706 133.01 32.4225 133.399 30.0545C133.789 27.6865 133.249 26.0579 130.801 26.0579H130.772Z" fill="white"/>
<path d="M174.233 22.4707C173.078 22.476 171.939 22.742 170.901 23.2489C169.863 23.7558 168.953 24.4905 168.238 25.3982C167.919 23.5898 166.64 22.4707 164.442 22.4707C163.344 22.4813 162.263 22.7425 161.281 23.2342C160.299 23.726 159.443 24.4353 158.777 25.3083L159.216 22.6605C155.17 22.6605 154.61 22.6605 154.22 25.0285L152.072 38.0175C156.069 38.0175 156.668 38.0175 157.068 35.7294L157.997 30.1042C158.397 27.7062 159.996 26.4573 161.574 26.4573C163.153 26.4573 163.572 27.4565 163.293 29.2949L161.794 37.9675C165.791 37.9675 166.38 37.9675 166.79 35.7194L167.789 29.9543C167.885 29.0422 168.292 28.1908 168.941 27.5431C169.591 26.8955 170.443 26.4909 171.356 26.3974C172.895 26.3974 173.354 27.3965 173.074 29.2349L171.566 37.9675C175.562 37.9675 176.172 37.9675 176.561 35.6295L177.92 27.4265C178.42 24.3691 177.301 22.4707 174.233 22.4707Z" fill="white"/>
<path d="M151.163 22.4707C149.595 22.4707 147.826 23.4699 146.168 25.7179L146.677 22.6605C142.631 22.6605 142.071 22.6605 141.681 25.0285L139.533 38.0175C143.53 38.0175 144.129 38.0175 144.529 35.7294L145.158 31.9127C145.868 27.6063 148.276 26.2974 151.913 26.857C152.742 23.4099 152.532 22.4707 151.163 22.4707Z" fill="white"/>
<path d="M77.9352 22.4707C76.3666 22.4707 74.5981 23.4699 72.9395 25.7179L73.4491 22.6605C69.4025 22.6605 68.843 22.6605 68.4533 25.0285L66.2852 37.9675C70.2818 37.9675 70.8812 37.9675 71.2809 35.6794L71.9403 31.8527C72.6497 27.5464 75.0577 26.2375 78.6946 26.797C79.4739 23.4099 79.2741 22.4707 77.9352 22.4707Z" fill="white"/>
<path d="M65.146 22.6602C61.0995 22.6602 60.5399 22.6602 60.1503 25.0281L57.9521 37.9671C61.9487 37.9671 62.5482 37.9671 62.9479 35.6791L65.146 22.6602Z" fill="white"/>
<path d="M56.4739 22.6111L53.0868 22.7809L53.2167 21.9916C53.2392 21.548 53.3508 21.1136 53.5449 20.7141C53.739 20.3146 54.0115 19.9583 54.3463 19.6664C54.681 19.3746 55.0711 19.1531 55.4933 19.0153C55.9155 18.8775 56.3612 18.8261 56.8037 18.8643C57.2457 18.8781 57.6848 18.9417 58.1125 19.0541C58.1125 19.0541 60.0109 15.4372 55.6746 15.4372C53.9534 15.3897 52.2775 15.9928 50.9812 17.1262C49.6849 18.2595 48.8634 19.8398 48.6806 21.552L45.9629 37.968C49.9595 37.968 50.569 37.968 50.9586 35.6499L52.5173 26.238H57.5131C58.4223 23.4503 58.0826 22.6111 56.4739 22.6111Z" fill="white"/>
<defs>
<linearGradient id="paint0_linear" x1="25.9778" y1="0" x2="25.9778" y2="43.9625" gradientUnits="userSpaceOnUse">
<stop stop-color="#FF6400"/>
<stop offset="0.0001" stop-color="#FF6400"/>
<stop offset="0.5" stop-color="#FF3232"/>
<stop offset="1" stop-color="#FF0064"/>
</linearGradient>
<linearGradient id="paint1_linear" x1="25.9778" y1="0" x2="25.9778" y2="43.9625" gradientUnits="userSpaceOnUse">
<stop stop-color="#FF6400"/>
<stop offset="0.0001" stop-color="#FF6400"/>
<stop offset="0.5" stop-color="#FF3232"/>
<stop offset="1" stop-color="#FF0064"/>
</linearGradient>
<linearGradient id="paint2_linear" x1="81.9308" y1="13.9876" x2="81.9308" y2="20.9817" gradientUnits="userSpaceOnUse">
<stop stop-color="#FF6400"/>
<stop offset="0.0001" stop-color="#FF6400"/>
<stop offset="0.5" stop-color="#FF3232"/>
<stop offset="1" stop-color="#FF0064"/>
</linearGradient>
</defs>
</svg>
