<svg width="130" height="32" viewBox="0 0 130 32" fill="none" xmlns="http://www.w3.org/2000/svg">
<path d="M23.7026 2.06143C23.6501 2.77319 23.4048 3.45723 22.9931 4.04019C21.6924 5.87863 19.1709 6.86688 16.1989 7.70253C16.1989 4.89262 18.2615 3.64461 20.2523 2.44003C21.4432 1.71948 22.6084 1.01447 23.291 0C23.6128 0.637047 23.7551 1.34967 23.7026 2.06143Z" fill="url(#paint0_linear)"/>
<path d="M25.5089 22.6565C25.8473 22.3719 26.1237 22.0209 26.321 21.6253C27.6145 23.5001 27.3601 26.7409 25.6743 29.0808C22.4044 33.5424 15.6974 32.3943 13.6845 28.9572C17.2379 28.6956 18.5894 26.3195 17.9645 23.8707C16.8818 25.7236 12.5219 26.3921 12.5219 23.689C12.5219 22.3929 14.0567 21.499 14.9086 21.0029C15.0549 20.9176 15.1811 20.8442 15.2759 20.7824C18.5168 18.6823 18.7348 16.0373 18.7348 16.0373C17.7987 16.6315 15.5786 17.0829 13.9453 17.4151C13.4612 17.5135 13.0286 17.6015 12.6963 17.6796C4.63042 19.5616 4.78302 28.6593 11.5845 31.6313C2.65392 33.8113 -3.43543 24.9606 2.138 17.0982C4.59586 13.6332 9.50061 12.1221 14.2061 10.6724C18.9048 9.22477 23.4047 7.83836 25.0712 4.62887C25.0712 4.62887 30.1432 11.1615 23.1601 16.7131C19.3088 19.7578 20.3479 22.1703 21.8012 22.9769C22.1834 23.1992 22.6071 23.3408 23.0461 23.393C23.4852 23.4451 23.9303 23.4067 24.3539 23.28C24.7775 23.1533 25.1706 22.9411 25.5089 22.6565Z" fill="url(#paint1_linear)"/>
<path d="M48.8561 13.5734C49.1953 13.1155 49.3642 12.5537 49.3337 11.9846C49.3032 11.4156 49.0752 10.8751 48.689 10.4561C47.4754 12.171 43.6896 12.1928 44.329 15.6008C45.7169 15.0776 48.0132 14.7433 48.8561 13.5734Z" fill="url(#paint2_linear)"/>
<path d="M61.9798 27.8383C58.4628 27.8383 56.3628 25.7746 57.0313 21.7417C57.3063 20.181 58.1387 18.7733 59.3737 17.7803C60.6087 16.7872 62.1622 16.2763 63.7456 16.3426C67.2408 16.3426 68.8321 18.4717 68.2799 21.669C68.0837 22.8462 67.0155 23.1223 66.1362 23.1223H60.4829C60.6645 24.6192 61.7255 25.3677 63.8182 25.3677C64.9754 25.3794 66.1228 25.1544 67.1899 24.7064C67.1899 24.7064 67.3861 27.8383 61.9798 27.8383ZM60.6209 21.1458H64.3051C64.4595 21.1475 64.6093 21.0933 64.7269 20.9931C64.8444 20.8929 64.9217 20.7536 64.9445 20.6008C65.148 19.3728 64.5449 18.5589 63.3386 18.5589C61.8054 18.5662 60.9843 19.5399 60.6209 21.1531V21.1458Z" fill="white"/>
<path d="M72.8495 27.8384C68.9474 27.8384 69.7976 24.7138 69.7976 24.7138C70.5522 25.2917 71.4957 25.5665 72.4426 25.4841C73.5108 25.4841 74.3028 25.2297 74.4045 24.6412C74.6516 23.1878 69.209 24.3214 69.892 20.1722C70.2844 17.7888 72.7405 16.3428 75.5163 16.3428C78.1032 16.3428 79.5565 17.4764 79.3022 18.9951C79.135 19.9906 78.3357 20.3757 77.2893 20.3757H76.3738L76.4392 19.9906C76.5772 19.1477 76.163 18.6317 75.1675 18.6317C74.8116 18.5971 74.4549 18.6898 74.1609 18.8934C73.8668 19.0969 73.6545 19.3982 73.5616 19.7435C73.191 21.9889 78.6991 20.3975 78.0451 24.3432C77.6454 26.7485 75.2039 27.8384 72.8495 27.8384Z" fill="white"/>
<path d="M84.3681 19.0899L83.7431 22.854C83.4743 24.4672 83.9248 25.3246 85.4944 25.3246C86.2189 25.3262 86.9368 25.1881 87.6089 24.9177C87.6089 24.9177 88.5681 27.8243 83.5615 27.8243C81.2071 27.8243 79.7538 26.7343 80.3061 23.399L81.5341 15.9871C81.8175 14.2649 82.4642 12.8262 85.4072 12.8262L84.7895 16.5466L87.2602 16.4231C88.4228 16.4231 88.6699 17.0335 87.9868 19.0681L84.3681 19.0899Z" fill="white"/>
<path d="M93.6544 27.8379C90.0938 27.8379 88.1391 25.4327 88.7277 21.8721C89.3163 18.3115 91.8087 16.335 95.5582 16.335C99.3078 16.335 101.11 18.3987 100.529 21.8721C100.309 23.5342 99.4882 25.0585 98.2219 26.1575C96.9556 27.2564 95.331 27.8541 93.6544 27.8379ZM95.1077 18.9509C93.3056 18.9509 92.4918 20.1281 92.2011 21.8575C91.9104 23.587 92.4409 25.142 94.0759 25.142C95.7108 25.142 96.7354 23.5797 97.0188 21.8575C97.3022 20.1354 96.9098 18.9509 95.1295 18.9509H95.1077Z" fill="white"/>
<path d="M126.716 16.3428C125.876 16.3466 125.048 16.54 124.293 16.9087C123.538 17.2774 122.876 17.8117 122.356 18.4719C122.124 17.1566 121.194 16.3428 119.595 16.3428C118.797 16.3505 118.01 16.5404 117.296 16.8981C116.582 17.2557 115.959 17.7716 115.475 18.4065L115.795 16.4808C112.852 16.4808 112.445 16.4808 112.161 18.203L110.599 27.6495C113.506 27.6495 113.942 27.6495 114.232 25.9855L114.908 21.8944C115.199 20.1504 116.361 19.2421 117.51 19.2421C118.658 19.2421 118.963 19.9688 118.759 21.3058L117.669 27.6132C120.576 27.6132 121.005 27.6132 121.303 25.9782L122.029 21.7854C122.099 21.122 122.395 20.5028 122.868 20.0318C123.34 19.5608 123.96 19.2666 124.624 19.1985C125.743 19.1985 126.077 19.9252 125.873 21.2622L124.776 27.6132C127.683 27.6132 128.126 27.6132 128.409 25.9128L129.398 19.947C129.761 17.7234 128.947 16.3428 126.716 16.3428Z" fill="white"/>
<path d="M109.938 16.3428C108.797 16.3428 107.511 17.0694 106.304 18.7044L106.675 16.4808C103.732 16.4808 103.325 16.4808 103.042 18.203L101.479 27.6495C104.386 27.6495 104.822 27.6495 105.113 25.9855L105.571 23.2097C106.086 20.0778 107.838 19.1259 110.483 19.5328C111.086 17.0258 110.933 16.3428 109.938 16.3428Z" fill="white"/>
<path d="M56.6813 16.3428C55.5404 16.3428 54.2543 17.0694 53.048 18.7044L53.4186 16.4808C50.4757 16.4808 50.0687 16.4808 49.7853 18.203L48.2085 27.6132C51.1151 27.6132 51.5511 27.6132 51.8418 25.9491L52.3214 23.166C52.8373 20.0342 54.5885 19.0823 57.2335 19.4892C57.8003 17.0258 57.655 16.3428 56.6813 16.3428Z" fill="white"/>
<path d="M47.3803 16.4805C44.4374 16.4805 44.0305 16.4805 43.7471 18.2026L42.1484 27.6128C45.0551 27.6128 45.491 27.6128 45.7817 25.9488L47.3803 16.4805Z" fill="white"/>
<path d="M41.0731 16.4448L38.6098 16.5684L38.7042 15.9943C38.7206 15.6717 38.8018 15.3558 38.9429 15.0652C39.084 14.7747 39.2823 14.5156 39.5257 14.3033C39.7692 14.091 40.0529 13.93 40.3599 13.8298C40.667 13.7295 40.9911 13.6922 41.3129 13.7199C41.6344 13.7299 41.9537 13.7763 42.2648 13.858C42.2648 13.858 43.6455 11.2275 40.4918 11.2275C39.24 11.193 38.0212 11.6316 37.0784 12.4558C36.1356 13.2801 35.5382 14.4294 35.4052 15.6746L33.4287 27.6135C36.3353 27.6135 36.7786 27.6135 37.062 25.9277L38.1956 19.0826H41.8288C42.4901 17.0552 42.243 16.4448 41.0731 16.4448Z" fill="white"/>
<defs>
<linearGradient id="paint0_linear" x1="18.893" y1="0" x2="18.893" y2="31.9728" gradientUnits="userSpaceOnUse">
<stop stop-color="#FF6400"/>
<stop offset="0.0001" stop-color="#FF6400"/>
<stop offset="0.5" stop-color="#FF3232"/>
<stop offset="1" stop-color="#FF0064"/>
</linearGradient>
<linearGradient id="paint1_linear" x1="18.893" y1="0" x2="18.893" y2="31.9728" gradientUnits="userSpaceOnUse">
<stop stop-color="#FF6400"/>
<stop offset="0.0001" stop-color="#FF6400"/>
<stop offset="0.5" stop-color="#FF3232"/>
<stop offset="1" stop-color="#FF0064"/>
</linearGradient>
<linearGradient id="paint2_linear" x1="59.5872" y1="10.1729" x2="59.5872" y2="15.2595" gradientUnits="userSpaceOnUse">
<stop stop-color="#FF6400"/>
<stop offset="0.0001" stop-color="#FF6400"/>
<stop offset="0.5" stop-color="#FF3232"/>
<stop offset="1" stop-color="#FF0064"/>
</linearGradient>
</defs>
</svg>
