<svg width="162" height="40" viewBox="0 0 162 40" fill="none" xmlns="http://www.w3.org/2000/svg">
<path d="M29.6282 2.57679C29.5626 3.46649 29.2561 4.32154 28.7414 5.05024C27.1155 7.34828 23.9637 8.5836 20.2486 9.62816C20.2486 6.11578 22.8269 4.55576 25.3154 3.05004C26.804 2.14935 28.2605 1.26809 29.1138 0C29.516 0.796309 29.6938 1.68709 29.6282 2.57679Z" fill="url(#paint0_linear)"/>
<path d="M31.8862 28.3206C32.3091 27.9649 32.6546 27.5262 32.9013 27.0316C34.5181 29.3751 34.2002 33.4262 32.0929 36.351C28.0055 41.928 19.6217 40.4929 17.1057 36.1965C21.5473 35.8695 23.2368 32.8993 22.4556 29.8383C21.1022 32.1545 15.6523 32.9902 15.6523 29.6112C15.6523 27.9911 17.5708 26.8738 18.6357 26.2536C18.8186 26.1471 18.9764 26.0552 19.0949 25.978C23.146 23.3529 23.4185 20.0467 23.4185 20.0467C22.2484 20.7893 19.4732 21.3537 17.4316 21.7688C16.8264 21.8919 16.2857 22.0018 15.8703 22.0995C5.78802 24.452 5.97877 35.8241 14.4806 39.5391C3.3174 42.2641 -4.29429 31.2008 2.6725 21.3728C5.74482 17.0416 11.8758 15.1527 17.7576 13.3405C23.6309 11.531 29.2559 9.79795 31.339 5.78609C31.339 5.78609 37.679 13.9519 28.9501 20.8914C24.136 24.6972 25.4349 27.7129 27.2516 28.7211C27.7292 28.999 28.2589 29.176 28.8077 29.2412C29.3565 29.3064 29.9128 29.2583 30.4423 29.1C30.9718 28.9416 31.4632 28.6764 31.8862 28.3206Z" fill="url(#paint1_linear)"/>
<path d="M61.0689 16.966C61.4929 16.3937 61.704 15.6913 61.6659 14.9801C61.6277 14.2688 61.3427 13.5931 60.86 13.0693C59.3431 15.213 54.6107 15.2402 55.4101 19.5002C57.145 18.8462 60.0152 18.4284 61.0689 16.966Z" fill="url(#paint2_linear)"/>
<path d="M77.4731 34.7967C73.0769 34.7967 70.4519 32.217 71.2875 27.1759C71.6313 25.225 72.6718 23.4654 74.2155 22.2241C75.7592 20.9828 77.7012 20.3442 79.6804 20.4271C84.0494 20.4271 86.0386 23.0885 85.3483 27.0851C85.103 28.5565 83.7678 28.9017 82.6687 28.9017H75.602C75.8291 30.7728 77.1552 31.7084 79.7712 31.7084C81.2177 31.7231 82.652 31.4418 83.9858 30.8818C83.9858 30.8818 84.231 34.7967 77.4731 34.7967ZM75.7746 26.4311H80.3798C80.5728 26.4332 80.7601 26.3654 80.907 26.2401C81.0539 26.1149 81.1506 25.9408 81.1791 25.7498C81.4334 24.2148 80.6795 23.1975 79.1717 23.1975C77.2552 23.2065 76.2287 24.4237 75.7746 26.4401V26.4311Z" fill="white"/>
<path d="M91.0606 34.7973C86.183 34.7973 87.2457 30.8915 87.2457 30.8915C88.189 31.6139 89.3684 31.9573 90.552 31.8544C91.8872 31.8544 92.8773 31.5365 93.0044 30.8007C93.3133 28.9841 86.51 30.4011 87.3638 25.2146C87.8543 22.2353 90.9244 20.4277 94.3942 20.4277C97.6278 20.4277 99.4444 21.8447 99.1265 23.7431C98.9176 24.9875 97.9184 25.4689 96.6105 25.4689H95.466L95.5477 24.9875C95.7203 23.9338 95.2026 23.2889 93.9582 23.2889C93.5133 23.2457 93.0674 23.3615 92.6999 23.616C92.3323 23.8704 92.0669 24.247 91.9508 24.6787C91.4876 27.4854 98.3726 25.4961 97.5551 30.4283C97.0555 33.4348 94.0036 34.7973 91.0606 34.7973Z" fill="white"/>
<path d="M105.458 23.8619L104.677 28.567C104.341 30.5835 104.904 31.6553 106.866 31.6553C107.772 31.6573 108.669 31.4846 109.51 31.1466C109.51 31.1466 110.709 34.7799 104.45 34.7799C101.507 34.7799 99.6907 33.4174 100.381 29.2482L101.916 19.9834C102.27 17.8307 103.079 16.0322 106.757 16.0322L105.985 20.6828L109.074 20.5284C110.527 20.5284 110.836 21.2914 109.982 23.8347L105.458 23.8619Z" fill="white"/>
<path d="M117.067 34.7966C112.616 34.7966 110.173 31.7901 110.908 27.3393C111.644 22.8886 114.76 20.418 119.447 20.418C124.133 20.418 126.386 22.9976 125.659 27.3393C125.385 29.4171 124.359 31.3224 122.776 32.6961C121.193 34.0698 119.163 34.817 117.067 34.7966ZM118.883 23.6879C116.631 23.6879 115.613 25.1594 115.25 27.3212C114.887 29.483 115.55 31.4268 117.594 31.4268C119.637 31.4268 120.918 29.4739 121.272 27.3212C121.627 25.1685 121.136 23.6879 118.911 23.6879H118.883Z" fill="white"/>
<path d="M158.394 20.4277C157.344 20.4325 156.309 20.6743 155.365 21.1351C154.421 21.596 153.594 22.2639 152.944 23.0891C152.654 21.445 151.491 20.4277 149.493 20.4277C148.495 20.4374 147.512 20.6748 146.619 21.1218C145.727 21.5689 144.948 22.2138 144.343 23.0074L144.742 20.6003C141.064 20.6003 140.555 20.6003 140.201 22.753L138.248 34.5611C141.881 34.5611 142.426 34.5611 142.789 32.4811L143.634 27.3673C143.997 25.1873 145.451 24.0519 146.886 24.0519C148.321 24.0519 148.703 24.9602 148.448 26.6315L147.086 34.5157C150.719 34.5157 151.255 34.5157 151.627 32.472L152.536 27.231C152.623 26.4018 152.993 25.6278 153.583 25.039C154.174 24.4502 154.949 24.0825 155.778 23.9974C157.177 23.9974 157.595 24.9057 157.341 26.577L155.969 34.5157C159.602 34.5157 160.156 34.5157 160.511 32.3903L161.746 24.933C162.2 22.1535 161.183 20.4277 158.394 20.4277Z" fill="white"/>
<path d="M137.421 20.4277C135.995 20.4277 134.388 21.3361 132.88 23.3798L133.343 20.6003C129.664 20.6003 129.156 20.6003 128.802 22.753L126.849 34.5611C130.482 34.5611 131.027 34.5611 131.39 32.4811L131.962 29.0113C132.607 25.0965 134.796 23.9066 138.103 24.4152C138.857 21.2816 138.666 20.4277 137.421 20.4277Z" fill="white"/>
<path d="M70.8504 20.4277C69.4243 20.4277 67.8166 21.3361 66.3088 23.3798L66.772 20.6003C63.0934 20.6003 62.5847 20.6003 62.2305 22.753L60.2594 34.5157C63.8927 34.5157 64.4377 34.5157 64.801 32.4357L65.4005 28.9568C66.0454 25.042 68.2344 23.8521 71.5407 24.3607C72.2492 21.2816 72.0675 20.4277 70.8504 20.4277Z" fill="white"/>
<path d="M59.2238 20.5996C55.5452 20.5996 55.0365 20.5996 54.6823 22.7523L52.684 34.515C56.3172 34.515 56.8622 34.515 57.2255 32.435L59.2238 20.5996Z" fill="white"/>
<path d="M51.3402 20.5553L48.261 20.7097L48.379 19.9922C48.3995 19.5889 48.501 19.194 48.6774 18.8308C48.8538 18.4676 49.1016 18.1437 49.4059 17.8784C49.7102 17.6131 50.0649 17.4118 50.4487 17.2865C50.8325 17.1612 51.2376 17.1145 51.6399 17.1491C52.0418 17.1617 52.4409 17.2196 52.8298 17.3217C52.8298 17.3217 54.5556 14.0336 50.6135 14.0336C49.0488 13.9905 47.5252 14.5387 46.3468 15.5691C45.1683 16.5994 44.4215 18.036 44.2553 19.5925L41.7847 34.5162C45.4179 34.5162 45.972 34.5162 46.3263 32.4089L47.7432 23.8525H52.2848C53.1114 21.3183 52.8026 20.5553 51.3402 20.5553Z" fill="white"/>
<defs>
<linearGradient id="paint0_linear" x1="23.6162" y1="0" x2="23.6162" y2="39.9659" gradientUnits="userSpaceOnUse">
<stop stop-color="#FF6400"/>
<stop offset="0.0001" stop-color="#FF6400"/>
<stop offset="0.5" stop-color="#FF3232"/>
<stop offset="1" stop-color="#FF0064"/>
</linearGradient>
<linearGradient id="paint1_linear" x1="23.6162" y1="0" x2="23.6162" y2="39.9659" gradientUnits="userSpaceOnUse">
<stop stop-color="#FF6400"/>
<stop offset="0.0001" stop-color="#FF6400"/>
<stop offset="0.5" stop-color="#FF3232"/>
<stop offset="1" stop-color="#FF0064"/>
</linearGradient>
<linearGradient id="paint2_linear" x1="74.4827" y1="12.7154" x2="74.4827" y2="19.0736" gradientUnits="userSpaceOnUse">
<stop stop-color="#FF6400"/>
<stop offset="0.0001" stop-color="#FF6400"/>
<stop offset="0.5" stop-color="#FF3232"/>
<stop offset="1" stop-color="#FF0064"/>
</linearGradient>
</defs>
</svg>
