<svg viewBox="0 0 226 160" fill="none" xmlns="http://www.w3.org/2000/svg">
<path d="M109.159 48.1276C109.159 50.0631 109.988 52.9139 117.155 55.3097C120.199 56.3274 129.462 59.4244 129.462 68.4914C129.462 74.7599 125.13 80.0297 119.311 81.4538V82.8084C119.311 84.555 117.9 85.9703 116.159 85.9703C114.418 85.9703 113.006 84.555 113.006 82.8084V81.4538C107.187 80.0297 102.854 74.7599 102.854 68.4914C102.854 66.7448 104.266 65.3295 106.007 65.3295C107.748 65.3295 109.159 66.7448 109.159 68.4914C109.159 72.3628 112.299 75.5116 116.159 75.5116C120.018 75.5116 123.158 72.3624 123.158 68.4914C123.158 66.2616 122.208 63.6647 115.162 61.3093C106.995 58.5787 102.854 54.144 102.854 48.1276C102.854 41.8595 107.187 36.5897 113.006 35.1656V33.811C113.006 32.0644 114.418 30.6492 116.159 30.6492C117.9 30.6492 119.311 32.0644 119.311 33.811V35.1656C125.13 36.5897 129.462 41.8595 129.462 48.1276C129.462 49.8742 128.051 51.2895 126.31 51.2895C124.569 51.2895 123.158 49.8742 123.158 48.1276C123.158 44.2566 120.018 41.1078 116.159 41.1078C112.3 41.1078 109.159 44.2566 109.159 48.1276ZM226 3.16188V113.457C226 115.204 224.589 116.619 222.848 116.619H219.683V134.706C219.683 135.599 219.306 136.451 218.647 137.05C218.064 137.579 217.309 137.868 216.531 137.868C216.427 137.868 216.323 137.863 216.219 137.853L207.049 136.939V156.838C207.049 157.794 206.618 158.698 205.877 159.298C205.311 159.756 204.611 160 203.896 160C203.675 160 203.453 159.976 203.232 159.929L2.52367 116.556C2.51821 116.554 2.51316 116.554 2.5077 116.552L2.48878 116.548C2.44128 116.538 2.39589 116.524 2.34923 116.512C2.3135 116.502 2.27694 116.494 2.24163 116.484C2.19833 116.471 2.1563 116.455 2.11343 116.44C2.09787 116.434 2.0819 116.429 2.06635 116.423C2.03482 116.412 2.00288 116.402 1.97177 116.389C1.96421 116.386 1.95706 116.383 1.9495 116.38C1.91125 116.364 1.87384 116.345 1.83643 116.328C1.79692 116.31 1.75699 116.294 1.71831 116.274C1.70865 116.269 1.6994 116.263 1.68973 116.257C1.68847 116.257 1.68721 116.256 1.68553 116.255C1.6498 116.236 1.61533 116.216 1.58045 116.196C1.54556 116.175 1.51025 116.157 1.47662 116.135C1.46065 116.125 1.44552 116.114 1.42955 116.103C1.39886 116.084 1.36902 116.062 1.33918 116.041C1.30933 116.02 1.27865 116 1.24965 115.977C1.22947 115.962 1.21013 115.946 1.19038 115.93C1.1639 115.909 1.13784 115.887 1.1122 115.865C1.0874 115.844 1.06218 115.823 1.0378 115.801C1.01426 115.78 0.991982 115.757 0.969284 115.735C0.946586 115.713 0.923888 115.692 0.902031 115.67C0.882276 115.649 0.86294 115.628 0.843605 115.608C0.817965 115.58 0.793165 115.551 0.768366 115.522C0.749031 115.499 0.728855 115.478 0.71036 115.455C0.695228 115.437 0.681357 115.417 0.666646 115.399C0.641426 115.366 0.617467 115.333 0.593508 115.299C0.577115 115.276 0.559041 115.255 0.543068 115.231C0.530458 115.212 0.51953 115.192 0.50692 115.173C0.484222 115.138 0.462785 115.103 0.441348 115.066C0.426216 115.041 0.409823 115.015 0.395532 114.989C0.382502 114.965 0.370312 114.941 0.357702 114.917C0.341309 114.885 0.325757 114.854 0.310625 114.822C0.296334 114.792 0.282463 114.762 0.269012 114.732C0.256402 114.704 0.244213 114.675 0.232443 114.647C0.221515 114.62 0.211427 114.594 0.201339 114.567C0.188308 114.532 0.176539 114.497 0.16477 114.461C0.153841 114.429 0.142913 114.398 0.133245 114.365C0.12694 114.344 0.121055 114.323 0.115171 114.302C0.103402 114.26 0.0941542 114.217 0.0844866 114.175C0.0765003 114.141 0.067253 114.107 0.0605277 114.072C0.0575854 114.057 0.0550634 114.042 0.0521211 114.028C0.0424535 113.974 0.0357282 113.919 0.0290029 113.864C0.0247996 113.832 0.0189149 113.801 0.0155523 113.769C0.0147116 113.761 0.0142913 113.753 0.0134506 113.745C0.00504398 113.651 0 113.555 0 113.457V3.16188C0 1.41526 1.41147 0 3.15249 0H222.848C224.589 0 226 1.41526 226 3.16188ZM190.134 110.295C191.627 94.6372 204.084 82.1435 219.695 80.6461V35.9725C204.084 34.475 191.627 21.9814 190.134 6.32334H35.866C34.373 21.9818 21.9165 34.4755 6.30497 35.9725V80.6461C21.9165 82.1435 34.373 94.6372 35.866 110.295H190.134ZM29.522 110.295C28.0802 98.1283 18.4357 88.4551 6.30497 87.009V110.295H29.522ZM29.522 6.32376H6.30497V29.61C18.4357 28.1635 28.0802 18.4907 29.522 6.32376ZM219.695 6.32376H196.478C197.92 18.4907 207.564 28.1639 219.695 29.61V6.32376ZM200.744 136.312L58.1793 122.114L200.744 152.922V136.312H200.744ZM213.378 116.619H66.8087L213.378 131.215V116.619V116.619ZM219.695 110.295V87.009C207.564 88.4551 197.92 98.1283 196.478 110.295H216.522C216.525 110.295 216.528 110.295 216.53 110.295C216.533 110.295 216.536 110.295 216.538 110.295H219.695ZM145.939 33.486C144.514 34.4906 144.172 36.4628 145.173 37.8911C149.377 43.889 151.599 50.9493 151.599 58.3093C151.599 77.9092 135.7 93.8552 116.159 93.8552C96.6165 93.8552 80.7179 77.9092 80.7179 58.3093C80.7179 38.7094 96.6165 22.7634 116.159 22.7634C123.497 22.7634 130.537 24.9923 136.517 29.2095C137.942 30.2149 139.908 29.8709 140.909 28.4417C141.911 27.0134 141.568 25.0412 140.144 24.0366C133.096 19.067 124.802 16.4397 116.159 16.4397C93.14 16.4397 74.4129 35.2225 74.4129 58.3093C74.4129 81.3961 93.14 100.179 116.159 100.179C139.177 100.179 157.904 81.3961 157.904 58.3093C157.904 49.6403 155.285 41.3224 150.33 34.2541C149.33 32.8258 147.363 32.4826 145.939 33.486Z" fill="url(#paint0_linear)"/>
<defs>
<linearGradient id="paint0_linear" x1="113" y1="-50.8642" x2="113" y2="210.37" gradientUnits="userSpaceOnUse">
<stop stop-color="#727272"/>
<stop offset="1" stop-color="#0A0A0A"/>
</linearGradient>
</defs>
</svg>
