<svg width="149" height="135" viewBox="0 0 149 135" fill="none" xmlns="http://www.w3.org/2000/svg">
<path d="M25.1856 87.0772C19.3948 82.6056 18.4967 74.279 23.1995 68.6637L56.1558 29.3123C60.4111 24.2313 67.8391 23.1099 73.4038 26.7083L115.562 53.9696C121.816 58.0142 123.345 66.4262 118.911 72.4056L85.8631 116.979C81.4904 122.876 73.0605 124.045 67.2517 119.56L25.1856 87.0772Z" fill="#A9A1B3"/>
<path d="M22.6475 77.5537C16.8568 73.0822 15.9586 64.7556 20.6614 59.1402L53.6177 19.7888C57.873 14.7079 65.301 13.5865 70.8657 17.1849L113.024 44.4462C119.278 48.4907 120.807 56.9028 116.373 62.8822L83.3251 107.455C78.9523 113.353 70.5224 114.522 64.7136 110.037L22.6475 77.5537Z" fill="#E9ECED"/>
<path d="M20.6099 54.1332C14.8191 49.6616 13.921 41.335 18.6238 35.7197L23.4308 29.9799C27.6861 24.8989 35.114 23.7775 40.6788 27.376L46.4059 31.0794C52.6606 35.1239 54.189 43.5359 49.7555 49.5154L44.9601 55.9831C40.5873 61.8808 32.1574 63.05 26.3486 58.5645L20.6099 54.1332Z" fill="#A9A1B3"/>
<path d="M19.5298 50.0785C13.739 45.607 12.8409 37.2804 17.5437 31.665L22.3507 25.9252C26.606 20.8442 34.0339 19.7228 39.5987 23.3213L45.3259 27.0247C51.5805 31.0692 53.1089 39.4812 48.6755 45.4607L43.88 51.9284C39.5072 57.8261 31.0773 58.9953 25.2685 54.5099L19.5298 50.0785Z" fill="#E9ECED"/>
<path d="M126.375 43.8508C122.116 40.5618 121.455 34.4374 124.915 30.3071L125.187 29.9821C128.312 26.2498 133.769 25.4261 137.856 28.0693C142.451 31.0403 143.574 37.2195 140.317 41.6118L140.065 41.9521C136.848 46.29 130.648 47.15 126.375 43.8508Z" fill="#E9ECED"/>
<path d="M105.5 31.5868C103.573 30.0984 103.274 27.3267 104.839 25.4575L104.962 25.3104C106.377 23.6213 108.846 23.2485 110.696 24.4448C112.775 25.7893 113.284 28.5858 111.81 30.5735L111.696 30.7275C110.24 32.6907 107.434 33.0799 105.5 31.5868Z" fill="#E9ECED"/>
</svg>
