<svg width="128" height="150" viewBox="0 0 128 150" fill="none" xmlns="http://www.w3.org/2000/svg">
<path d="M59.5429 58.0688H67.5429C68.6037 58.0688 69.6211 58.5008 70.3713 59.2698C71.1214 60.0388 71.5429 61.0818 71.5429 62.1693C71.5429 63.2568 71.9643 64.2998 72.7144 65.0688C73.4646 65.8378 74.482 66.2698 75.5429 66.2698C76.6037 66.2698 77.6212 65.8378 78.3713 65.0688C79.1214 64.2998 79.5429 63.2568 79.5429 62.1693C79.5429 58.9067 78.2786 55.7778 76.0281 53.4708C73.7777 51.1638 70.7255 49.8677 67.5429 49.8677V45.7672C67.5429 44.6797 67.1214 43.6367 66.3713 42.8677C65.6212 42.0987 64.6037 41.6667 63.5429 41.6667C62.482 41.6667 61.4646 42.0987 60.7144 42.8677C59.9643 43.6367 59.5429 44.6797 59.5429 45.7672V49.8677C56.3603 49.8677 53.308 51.1638 51.0576 53.4708C48.8072 55.7778 47.5429 58.9067 47.5429 62.1693C47.5429 65.4319 48.8072 68.5609 51.0576 70.8679C53.308 73.1748 56.3603 74.4709 59.5429 74.4709H67.5429C68.6037 74.4709 69.6211 74.9029 70.3713 75.6719C71.1214 76.4409 71.5429 77.4839 71.5429 78.5714C71.5429 79.659 71.1214 80.702 70.3713 81.4709C69.6211 82.2399 68.6037 82.672 67.5429 82.672H59.5429C58.482 82.672 57.4646 82.2399 56.7144 81.4709C55.9643 80.702 55.5429 79.659 55.5429 78.5714C55.5429 77.4839 55.1214 76.4409 54.3713 75.6719C53.6212 74.9029 52.6037 74.4709 51.5429 74.4709C50.482 74.4709 49.4646 74.9029 48.7144 75.6719C47.9643 76.4409 47.5429 77.4839 47.5429 78.5714C47.5429 81.834 48.8072 84.963 51.0576 87.27C53.308 89.577 56.3603 90.873 59.5429 90.873V94.9735C59.5429 96.0611 59.9643 97.1041 60.7144 97.8731C61.4646 98.6421 62.482 99.0741 63.5429 99.0741C64.6037 99.0741 65.6212 98.6421 66.3713 97.8731C67.1214 97.1041 67.5429 96.0611 67.5429 94.9735V90.873C70.7255 90.873 73.7777 89.577 76.0281 87.27C78.2786 84.963 79.5429 81.834 79.5429 78.5714C79.5429 75.3089 78.2786 72.1799 76.0281 69.8729C73.7777 67.5659 70.7255 66.2698 67.5429 66.2698H59.5429C58.482 66.2698 57.4646 65.8378 56.7144 65.0688C55.9643 64.2998 55.5429 63.2568 55.5429 62.1693C55.5429 61.0818 55.9643 60.0388 56.7144 59.2698C57.4646 58.5008 58.482 58.0688 59.5429 58.0688Z" fill="url(#paint0_linear)"/>
<path fill-rule="evenodd" clip-rule="evenodd" d="M111.61 26.7736C111.867 27.3197 112 27.9172 112 28.5224V55.14C112.017 70.573 107.886 85.7192 100.051 98.9527C92.2162 112.186 80.9728 123.007 67.528 130.254L65.88 131.146C65.3008 131.459 64.6544 131.622 63.998 131.622C63.3416 131.622 62.6952 131.459 62.116 131.146L60.472 130.254C47.0272 123.007 35.7838 112.186 27.9488 98.9527C20.1138 85.7192 15.983 70.573 16 55.14V28.5183C16.0004 27.9153 16.1334 27.3199 16.3896 26.7756C16.6457 26.2313 17.0184 25.7518 17.4806 25.3719C17.9427 24.9921 18.4827 24.7215 19.0611 24.58C19.6395 24.4384 20.2418 24.4294 20.824 24.5537C34.1771 27.4381 48.1003 25.6578 60.328 19.5026L62.176 18.5661C62.7343 18.281 63.3508 18.1325 63.976 18.1325C64.6012 18.1325 65.2177 18.281 65.776 18.5661L67.664 19.5188C79.8901 25.6656 93.808 27.4414 107.156 24.5577C107.74 24.43 108.344 24.4364 108.925 24.5763C109.506 24.7163 110.049 24.9863 110.513 25.3665C110.978 25.7467 111.352 26.2275 111.61 26.7736ZM93.2577 94.6636C100.302 82.7173 104.015 69.0571 104 55.14V33.3627C90.3476 35.2869 76.44 32.991 64.096 26.7752L64 26.7225L63.928 26.763C51.5762 32.9814 37.661 35.28 24 33.3586V55.14C23.985 69.0571 27.6978 82.7173 34.7423 94.6636C41.7869 106.61 51.8989 116.394 64 122.973C76.1011 116.394 86.2131 106.61 93.2577 94.6636Z" fill="url(#paint1_linear)"/>
<path fill-rule="evenodd" clip-rule="evenodd" d="M128 4.06186V55.1404C128.02 73.513 123.103 91.5443 113.776 107.299C104.449 123.053 91.0651 135.936 75.06 144.564L65.884 149.522C65.3043 149.836 64.6572 150 64 150C63.3428 150 62.6957 149.836 62.116 149.522L52.94 144.564C36.9355 135.935 23.5517 123.052 14.2249 107.298C4.89818 91.5438 -0.0193678 73.5128 5.73267e-05 55.1404V4.06186C-0.00133124 3.34959 0.182479 2.64951 0.532985 2.03213C0.883492 1.41475 1.38832 0.901865 1.99663 0.545117C2.60494 0.188369 3.29526 0.00035257 3.99808 4.87162e-07C4.70089 -0.000348656 5.3914 0.186978 6.00005 0.543119L11.684 3.8389C17.972 7.48994 25.0541 9.50659 32.2982 9.70889C39.5423 9.9112 46.7232 8.29286 53.2 4.9983L62.18 0.433666C62.7352 0.152496 63.3474 0.00612192 63.968 0.00612192C64.5887 0.00612192 65.2008 0.152496 65.756 0.433666L74.8 5.01452C81.2761 8.30336 88.4544 9.9175 95.6952 9.71309C102.936 9.50867 110.015 7.49206 116.3 3.84296L122 0.543119C122.609 0.186978 123.299 -0.000348656 124.002 4.87162e-07C124.705 0.00035257 125.395 0.188369 126.003 0.545117C126.612 0.901865 127.117 1.41475 127.467 2.03213C127.818 2.64951 128.001 3.34959 128 4.06186ZM56.708 137.409L64 141.354L71.292 137.409C86.0173 129.472 98.3316 117.62 106.913 103.126C115.494 88.6323 120.018 72.0434 120 55.1404V11.0467C112.593 15.2908 104.271 17.6238 95.7648 17.8401C87.259 18.0565 78.8313 16.1495 71.224 12.2871L63.968 8.61434L56.768 12.2628C49.1636 16.1271 40.7384 18.0373 32.2342 17.8252C23.73 17.6131 15.4077 15.2853 8.00005 11.0467V55.1404C7.98246 72.0432 12.5071 88.6318 21.0883 103.126C29.6695 117.619 41.9833 129.471 56.708 137.409Z" fill="url(#paint2_linear)"/>
<defs>
<linearGradient id="paint0_linear" x1="64" y1="-47.6852" x2="64" y2="197.222" gradientUnits="userSpaceOnUse">
<stop stop-color="#727272"/>
<stop offset="1" stop-color="#0A0A0A"/>
</linearGradient>
<linearGradient id="paint1_linear" x1="64" y1="-47.6852" x2="64" y2="197.222" gradientUnits="userSpaceOnUse">
<stop stop-color="#727272"/>
<stop offset="1" stop-color="#0A0A0A"/>
</linearGradient>
<linearGradient id="paint2_linear" x1="64" y1="-47.6852" x2="64" y2="197.222" gradientUnits="userSpaceOnUse">
<stop stop-color="#727272"/>
<stop offset="1" stop-color="#0A0A0A"/>
</linearGradient>
</defs>
</svg>
