<svg width="256" height="256" viewBox="0 0 256 256" fill="none" xmlns="http://www.w3.org/2000/svg">
<path d="M91.3741 68.2045C94.3562 67.2504 97.5049 66.9408 100.614 67.2959V67.3008C105.167 67.8242 109.447 69.7514 112.869 72.8181C116.291 75.8849 118.686 79.9413 119.727 84.4314C120.769 88.9216 120.404 93.6259 118.685 97.8996C116.965 102.173 113.974 105.808 110.122 108.304C107.708 109.958 105.739 112.188 104.391 114.794C103.043 117.401 102.357 120.303 102.396 123.241C102.396 124.387 101.944 125.487 101.138 126.297C100.332 127.108 99.2397 127.563 98.1003 127.563C96.9609 127.563 95.8682 127.108 95.0626 126.297C94.2569 125.487 93.8043 124.387 93.8043 123.241C93.7399 118.853 94.7743 114.519 96.8121 110.639C98.8499 106.759 101.826 103.458 105.465 101.04C107.454 99.7541 109.077 97.9697 110.174 95.8619C111.27 93.7542 111.802 91.3956 111.719 89.018C111.635 86.6404 110.937 84.3258 109.695 82.3016C108.453 80.2774 106.708 78.6133 104.633 77.473C102.558 76.3326 100.224 75.7553 97.8598 75.7977C95.4958 75.8401 93.1834 76.5009 91.1501 77.7149C89.1168 78.929 87.4324 80.6546 86.2626 82.7221C85.0929 84.7896 84.478 87.1278 84.4784 89.5068C84.4784 90.6533 84.0258 91.7528 83.2201 92.5634C82.4145 93.3741 81.3218 93.8295 80.1824 93.8295C79.0431 93.8295 77.9504 93.3741 77.1447 92.5634C76.3391 91.7528 75.8864 90.6533 75.8864 89.5068C75.8872 86.3583 76.5489 83.2453 77.8281 80.3719C79.1073 77.4984 80.9752 74.9292 83.3096 72.8324C85.644 70.7356 88.3921 69.1586 91.3741 68.2045Z" fill="url(#paint0_linear)"/>
<path d="M98.1003 133.42C96.7758 133.42 95.481 133.815 94.3797 134.555C93.2784 135.296 92.4201 136.348 91.9132 137.579C91.4064 138.811 91.2737 140.165 91.5321 141.473C91.7905 142.78 92.4283 143.98 93.3649 144.923C94.3015 145.865 95.4947 146.507 96.7938 146.767C98.0928 147.027 99.4393 146.893 100.663 146.383C101.887 145.873 102.933 145.01 103.668 143.902C104.404 142.793 104.797 141.491 104.797 140.158C104.795 138.371 104.089 136.659 102.833 135.395C101.578 134.132 99.8758 133.422 98.1003 133.42Z" fill="url(#paint1_linear)"/>
<path d="M170.14 168.084H192.13C193.27 168.084 194.363 168.54 195.168 169.351C195.974 170.161 196.426 171.261 196.426 172.407C196.426 173.554 195.974 174.653 195.168 175.464C194.363 176.274 193.27 176.73 192.13 176.73H170.14C169.001 176.73 167.908 176.274 167.102 175.464C166.297 174.653 165.844 173.554 165.844 172.407C165.844 171.261 166.297 170.161 167.102 169.351C167.908 168.54 169.001 168.084 170.14 168.084Z" fill="url(#paint2_linear)"/>
<path fill-rule="evenodd" clip-rule="evenodd" d="M229.684 159.188C228.523 170.611 224.201 181.478 217.209 190.553L223.737 215.577C223.94 216.354 223.925 217.173 223.692 217.941C223.459 218.71 223.017 219.398 222.417 219.927C221.816 220.457 221.081 220.808 220.293 220.941C219.506 221.073 218.697 220.982 217.958 220.678L191.728 209.918C184.503 212.85 176.784 214.35 168.994 214.337C157.303 214.289 145.869 210.883 136.037 204.519C126.205 198.156 118.382 189.101 113.49 178.417C99.2544 181.562 84.4056 180.283 70.908 174.751L39.2406 187.744C38.5017 188.046 37.6939 188.135 36.9075 188.002C36.1212 187.868 35.3872 187.517 34.7878 186.988C34.1884 186.458 33.7472 185.772 33.5135 185.004C33.2797 184.237 33.2627 183.42 33.4644 182.643L41.3689 152.316C34.6945 143.754 30.0199 133.791 27.6912 123.164C25.3626 112.538 25.4396 101.52 27.9166 90.9281C30.3936 80.3357 35.207 70.4398 42.0005 61.9731C48.794 53.5065 57.3934 46.6861 67.1618 42.0171C76.9303 37.3481 87.6175 34.9501 98.4319 35.0008C109.246 35.0515 119.911 37.5495 129.636 42.3098C139.36 47.0701 147.896 53.9708 154.611 62.5007C161.326 71.0306 166.048 80.9713 168.427 91.5864C168.523 91.5864 168.617 91.5814 168.712 91.5765C168.806 91.5716 168.899 91.5667 168.994 91.5667C180.405 91.5655 191.589 94.7854 201.273 100.86C210.956 106.935 218.752 115.622 223.775 125.933C228.797 136.243 230.844 147.765 229.684 159.188ZM71.0019 165.749C71.5758 165.756 72.1424 165.88 72.6681 166.111C86.9248 172.382 102.974 173.163 117.766 168.307C132.558 163.45 145.061 153.295 152.898 139.77C160.735 126.245 163.361 110.295 160.276 94.9498C157.191 79.6048 148.61 65.9353 136.164 56.5395C123.718 47.1437 108.276 42.6766 92.771 43.9872C77.2664 45.2979 62.7808 52.2949 52.0676 63.6485C41.3543 75.002 35.1603 89.9205 34.6628 105.568C34.1654 121.216 39.3991 136.502 49.3693 148.522C49.81 149.051 50.118 149.678 50.2676 150.352C50.4171 151.025 50.4037 151.725 50.2285 152.392L43.9539 176.476L69.3271 166.069C69.8585 165.851 70.428 165.742 71.0019 165.749ZM191.645 200.919C192.219 200.912 192.789 201.02 193.321 201.238L213.24 209.409L208.347 190.637C208.173 189.969 208.161 189.269 208.31 188.596C208.46 187.922 208.768 187.295 209.209 186.766C215.557 179.129 219.625 169.838 220.943 159.971C222.261 150.103 220.774 140.062 216.655 131.009C212.535 121.957 205.952 114.264 197.667 108.82C189.382 103.377 179.734 100.406 169.841 100.251C170.083 102.646 170.204 105.078 170.204 107.548C170.215 117.267 168.273 126.888 164.496 135.833H192.13C193.27 135.833 194.363 136.288 195.168 137.099C195.974 137.91 196.426 139.009 196.426 140.156C196.426 141.302 195.974 142.401 195.168 143.212C194.363 144.023 193.27 144.478 192.13 144.478H160.137C158.602 147.075 156.908 149.573 155.065 151.958H192.133C193.272 151.958 194.365 152.413 195.171 153.224C195.976 154.034 196.429 155.134 196.429 156.28C196.429 157.427 195.976 158.526 195.171 159.337C194.365 160.147 193.272 160.603 192.133 160.603H147.209C139.911 167.454 131.28 172.707 121.861 176.031C126.196 184.898 132.905 192.371 141.232 197.611C149.558 202.851 159.173 205.65 168.994 205.692C176.217 205.705 183.364 204.202 189.978 201.28C190.504 201.049 191.071 200.926 191.645 200.919Z" fill="url(#paint3_linear)"/>
<defs>
<linearGradient id="paint0_linear" x1="128" y1="-24.1296" x2="128" y2="279.556" gradientUnits="userSpaceOnUse">
<stop stop-color="#FF0000" stop-opacity="0.98"/>
<stop offset="1" stop-color="#0A0A0A"/>
</linearGradient>
<linearGradient id="paint1_linear" x1="128" y1="-24.1296" x2="128" y2="279.556" gradientUnits="userSpaceOnUse">
<stop stop-color="#FF0000" stop-opacity="0.98"/>
<stop offset="1" stop-color="#0A0A0A"/>
</linearGradient>
<linearGradient id="paint2_linear" x1="128" y1="-24.1296" x2="128" y2="279.556" gradientUnits="userSpaceOnUse">
<stop stop-color="#FF0000" stop-opacity="0.98"/>
<stop offset="1" stop-color="#0A0A0A"/>
</linearGradient>
<linearGradient id="paint3_linear" x1="128" y1="-24.1296" x2="128" y2="279.556" gradientUnits="userSpaceOnUse">
<stop stop-color="#FF0000" stop-opacity="0.98"/>
<stop offset="1" stop-color="#0A0A0A"/>
</linearGradient>
</defs>
</svg>
