<svg viewBox="0 0 204 186" fill="none" xmlns="http://www.w3.org/2000/svg">
<path d="M65.3741 33.2045C68.3562 32.2504 71.5049 31.9408 74.6141 32.2959V32.3008C79.1667 32.8242 83.4472 34.7514 86.8689 37.8181C90.2907 40.8849 92.6862 44.9413 93.7274 49.4314C94.7685 53.9216 94.4043 58.6259 92.6847 62.8996C90.965 67.1734 87.9741 70.8075 84.1216 73.3041C81.7079 74.9579 79.739 77.1877 78.3909 79.7942C77.0427 82.4007 76.3575 85.3026 76.3963 88.2407C76.3963 89.3871 75.9437 90.4866 75.138 91.2973C74.3324 92.1079 73.2397 92.5633 72.1003 92.5633C70.9609 92.5633 69.8682 92.1079 69.0626 91.2973C68.2569 90.4866 67.8043 89.3871 67.8043 88.2407C67.7399 83.8528 68.7743 79.5192 70.8121 75.6393C72.8499 71.7594 75.8256 68.4581 79.4648 66.0396C81.4543 64.7541 83.077 62.9697 84.1735 60.8619C85.27 58.7542 85.8024 56.3956 85.7185 54.018C85.6346 51.6404 84.9373 49.3258 83.695 47.3016C82.4527 45.2774 80.7082 43.6133 78.6332 42.473C76.5581 41.3326 74.2238 40.7553 71.8598 40.7977C69.4958 40.8401 67.1834 41.5009 65.1501 42.7149C63.1168 43.929 61.4324 45.6546 60.2626 47.7221C59.0929 49.7896 58.478 52.1278 58.4784 54.5068C58.4784 55.6533 58.0258 56.7528 57.2201 57.5634C56.4145 58.3741 55.3218 58.8295 54.1824 58.8295C53.0431 58.8295 51.9504 58.3741 51.1447 57.5634C50.3391 56.7528 49.8864 55.6533 49.8864 54.5068C49.8872 51.3583 50.5489 48.2453 51.8281 45.3719C53.1073 42.4984 54.9752 39.9292 57.3096 37.8324C59.644 35.7356 62.3921 34.1586 65.3741 33.2045Z" fill="url(#paint0_linear)"/>
<path d="M72.1003 98.4196C70.7758 98.4196 69.481 98.8148 68.3797 99.5552C67.2784 100.296 66.4201 101.348 65.9132 102.579C65.4064 103.811 65.2737 105.165 65.5321 106.473C65.7905 107.78 66.4283 108.98 67.3649 109.923C68.3015 110.865 69.4947 111.507 70.7938 111.767C72.0928 112.027 73.4393 111.893 74.663 111.383C75.8867 110.873 76.9326 110.01 77.6684 108.902C78.4043 107.793 78.7971 106.491 78.7971 105.158C78.7951 103.371 78.0889 101.659 76.8335 100.395C75.578 99.1321 73.8758 98.4215 72.1003 98.4196Z" fill="url(#paint1_linear)"/>
<path d="M144.14 133.084H166.13C167.27 133.084 168.363 133.54 169.168 134.351C169.974 135.161 170.426 136.261 170.426 137.407C170.426 138.554 169.974 139.653 169.168 140.464C168.363 141.274 167.27 141.73 166.13 141.73H144.14C143.001 141.73 141.908 141.274 141.102 140.464C140.297 139.653 139.844 138.554 139.844 137.407C139.844 136.261 140.297 135.161 141.102 134.351C141.908 133.54 143.001 133.084 144.14 133.084Z" fill="url(#paint2_linear)"/>
<path fill-rule="evenodd" clip-rule="evenodd" d="M203.684 124.188C202.523 135.611 198.201 146.478 191.209 155.553L197.737 180.577C197.94 181.354 197.925 182.173 197.692 182.941C197.459 183.71 197.017 184.398 196.417 184.927C195.816 185.457 195.081 185.808 194.293 185.941C193.506 186.073 192.697 185.982 191.958 185.678L165.728 174.918C158.503 177.85 150.784 179.35 142.994 179.337C131.303 179.289 119.869 175.883 110.037 169.519C100.205 163.156 92.3821 154.101 87.4897 143.417C73.2544 146.562 58.4056 145.283 44.908 139.751L13.2406 152.744C12.5017 153.046 11.6939 153.135 10.9075 153.002C10.1212 152.868 9.38724 152.517 8.78784 151.988C8.18843 151.458 7.74719 150.772 7.51346 150.004C7.27973 149.237 7.26272 148.42 7.46435 147.643L15.3689 117.316C8.69451 108.754 4.01986 98.7906 1.69121 88.1642C-0.63743 77.5378 -0.56041 66.5205 1.91658 55.9281C4.39356 45.3357 9.20705 35.4398 16.0005 26.9731C22.794 18.5065 31.3934 11.6861 41.1618 7.01707C50.9303 2.34808 61.6175 -0.0498801 72.4319 0.000786485C83.2463 0.0514531 93.9108 2.54945 103.636 7.30977C113.36 12.0701 121.896 18.9708 128.611 27.5007C135.326 36.0306 140.048 45.9713 142.427 56.5864C142.523 56.5864 142.617 56.5814 142.712 56.5765C142.806 56.5716 142.899 56.5667 142.994 56.5667C154.405 56.5655 165.589 59.7854 175.273 65.8604C184.956 71.9354 192.752 80.6219 197.775 90.9327C202.797 101.243 204.844 112.765 203.684 124.188ZM45.0019 130.749C45.5758 130.756 46.1424 130.88 46.6681 131.111C60.9248 137.382 76.9743 138.163 91.766 133.307C106.558 128.45 119.061 118.295 126.898 104.77C134.735 91.2455 137.361 75.2948 134.276 59.9498C131.191 44.6048 122.61 30.9353 110.164 21.5395C97.7185 12.1437 82.2757 7.67657 66.771 8.98723C51.2664 10.2979 36.7808 17.2949 26.0676 28.6485C15.3543 40.002 9.16032 54.9205 8.66284 70.5683C8.16536 86.2161 13.3991 101.502 23.3693 113.522C23.81 114.051 24.118 114.678 24.2676 115.352C24.4171 116.025 24.4037 116.725 24.2285 117.392L17.9539 141.476L43.3271 131.069C43.8585 130.851 44.428 130.742 45.0019 130.749ZM165.645 165.919C166.219 165.912 166.789 166.02 167.321 166.238L187.24 174.409L182.347 155.637C182.173 154.969 182.161 154.269 182.31 153.596C182.46 152.922 182.768 152.295 183.209 151.766C189.557 144.129 193.625 134.838 194.943 124.971C196.261 115.103 194.774 105.062 190.655 96.0094C186.535 86.9569 179.952 79.2636 171.667 73.8202C163.382 68.3767 153.734 65.4058 143.841 65.2514C144.083 67.6458 144.204 70.078 144.204 72.5481C144.215 82.267 142.273 91.8878 138.496 100.833H166.13C167.27 100.833 168.363 101.288 169.168 102.099C169.974 102.91 170.426 104.009 170.426 105.156C170.426 106.302 169.974 107.401 169.168 108.212C168.363 109.023 167.27 109.478 166.13 109.478H134.137C132.602 112.075 130.908 114.573 129.065 116.958H166.133C167.272 116.958 168.365 117.413 169.171 118.224C169.976 119.034 170.429 120.134 170.429 121.28C170.429 122.427 169.976 123.526 169.171 124.337C168.365 125.147 167.272 125.603 166.133 125.603H121.209C113.911 132.454 105.28 137.707 95.8607 141.031C100.196 149.898 106.905 157.371 115.232 162.611C123.558 167.851 133.173 170.65 142.994 170.692C150.217 170.705 157.364 169.202 163.978 166.28C164.504 166.049 165.071 165.926 165.645 165.919Z" fill="url(#paint3_linear)"/>
<defs>
<linearGradient id="paint0_linear" x1="102" y1="-59.1296" x2="102" y2="244.556" gradientUnits="userSpaceOnUse">
<stop stop-color="#727272"/>
<stop offset="1" stop-color="#0A0A0A"/>
</linearGradient>
<linearGradient id="paint1_linear" x1="102" y1="-59.1296" x2="102" y2="244.556" gradientUnits="userSpaceOnUse">
<stop stop-color="#727272"/>
<stop offset="1" stop-color="#0A0A0A"/>
</linearGradient>
<linearGradient id="paint2_linear" x1="102" y1="-59.1296" x2="102" y2="244.556" gradientUnits="userSpaceOnUse">
<stop stop-color="#727272"/>
<stop offset="1" stop-color="#0A0A0A"/>
</linearGradient>
<linearGradient id="paint3_linear" x1="102" y1="-59.1296" x2="102" y2="244.556" gradientUnits="userSpaceOnUse">
<stop stop-color="#727272"/>
<stop offset="1" stop-color="#0A0A0A"/>
</linearGradient>
</defs>
</svg>
