<svg width="12" height="21" viewBox="0 0 12 21" fill="none" xmlns="http://www.w3.org/2000/svg">
<path d="M3.996 0.399999H11.556L7.888 12.496H2.848L3.996 0.399999ZM4.276 20.28C3.24933 20.28 2.40933 19.9813 1.756 19.384C1.10267 18.7867 0.776 18.0587 0.776 17.2C0.776 16.1547 1.14 15.296 1.868 14.624C2.61467 13.952 3.548 13.616 4.668 13.616C5.69467 13.616 6.53467 13.9053 7.188 14.484C7.84133 15.0627 8.168 15.7813 8.168 16.64C8.168 17.6667 7.79467 18.5347 7.048 19.244C6.30133 19.9347 5.37733 20.28 4.276 20.28Z" fill="#101010"/>
</svg>
